<svg width="83" height="30" viewBox="0 0 83 30" fill="none" xmlns="http://www.w3.org/2000/svg">
<g clip-path="url(#clip0_716_1001)">
<circle cx="13.3705" cy="12.7687" r="11.6127" stroke="#28C0E9"/>
<circle cx="18.6298" cy="12.7687" r="11.6127" stroke="#F4C141"/>
<circle cx="16.1596" cy="17.2312" r="11.6127" stroke="#E837BC"/>
<path d="M42.842 18.8225C42.842 19.1532 42.8686 19.3932 42.922 19.5425C42.9753 19.6919 43.0766 19.7932 43.226 19.8465C43.386 19.8999 43.6366 19.9265 43.978 19.9265C44.01 19.9265 44.026 19.9585 44.026 20.0225C44.026 20.0865 44.01 20.1185 43.978 20.1185C43.626 20.1185 43.3486 20.1132 43.146 20.1025L41.93 20.0865L40.746 20.1025C40.5326 20.1132 40.2446 20.1185 39.882 20.1185C39.8606 20.1185 39.85 20.0865 39.85 20.0225C39.85 19.9585 39.8606 19.9265 39.882 19.9265C40.2233 19.9265 40.474 19.8999 40.634 19.8465C40.794 19.7932 40.9006 19.6919 40.954 19.5425C41.018 19.3825 41.05 19.1425 41.05 18.8225V11.4145C41.05 11.0945 41.018 10.8599 40.954 10.7105C40.9006 10.5612 40.794 10.4599 40.634 10.4065C40.474 10.3425 40.2233 10.3105 39.882 10.3105C39.8606 10.3105 39.85 10.2785 39.85 10.2145C39.85 10.1505 39.8606 10.1185 39.882 10.1185L40.746 10.1345C41.2366 10.1559 41.6313 10.1665 41.93 10.1665C42.2606 10.1665 42.6713 10.1559 43.162 10.1345L43.978 10.1185C44.01 10.1185 44.026 10.1505 44.026 10.2145C44.026 10.2785 44.01 10.3105 43.978 10.3105C43.6473 10.3105 43.402 10.3425 43.242 10.4065C43.082 10.4705 42.9753 10.5825 42.922 10.7425C42.8686 10.8919 42.842 11.1265 42.842 11.4465V18.8225ZM59.3507 10.1185C59.372 10.1185 59.3827 10.1505 59.3827 10.2145C59.3827 10.2785 59.372 10.3105 59.3507 10.3105C58.956 10.3105 58.5827 10.4812 58.2307 10.8225C57.8894 11.1532 57.6067 11.6119 57.3827 12.1985L54.4227 20.1025C54.412 20.1452 54.3534 20.1665 54.2467 20.1665C54.14 20.1665 54.0814 20.1452 54.0707 20.1025L52.0227 15.7665L50.4067 20.1025C50.396 20.1452 50.3374 20.1665 50.2307 20.1665C50.124 20.1665 50.0654 20.1452 50.0547 20.1025L45.9747 11.4465C45.8147 11.1052 45.6814 10.8599 45.5747 10.7105C45.4787 10.5612 45.3667 10.4599 45.2387 10.4065C45.1214 10.3425 44.9614 10.3105 44.7587 10.3105C44.7267 10.3105 44.7107 10.2785 44.7107 10.2145C44.7107 10.1505 44.7267 10.1185 44.7587 10.1185C44.9187 10.1185 45.0307 10.1239 45.0947 10.1345C45.308 10.1559 45.5854 10.1665 45.9267 10.1665C46.6414 10.1665 47.244 10.1559 47.7347 10.1345C47.8734 10.1239 48.044 10.1185 48.2467 10.1185C48.2787 10.1185 48.2947 10.1505 48.2947 10.2145C48.2947 10.2785 48.2787 10.3105 48.2467 10.3105C47.98 10.3105 47.788 10.3372 47.6707 10.3905C47.564 10.4439 47.5107 10.5399 47.5107 10.6785C47.5107 10.8599 47.6334 11.2119 47.8787 11.7345L50.7587 17.8465L51.7667 15.2065L49.9907 11.4465C49.8094 11.0625 49.6387 10.7799 49.4787 10.5985C49.3187 10.4065 49.148 10.3105 48.9667 10.3105C48.9347 10.3105 48.9187 10.2785 48.9187 10.2145C48.9187 10.1505 48.9347 10.1185 48.9667 10.1185C49.0734 10.1185 49.196 10.1292 49.3347 10.1505C49.484 10.1612 49.692 10.1665 49.9587 10.1665C50.5667 10.1665 51.0734 10.1559 51.4787 10.1345C51.5854 10.1239 51.724 10.1185 51.8947 10.1185C51.9267 10.1185 51.9427 10.1505 51.9427 10.2145C51.9427 10.2785 51.9267 10.3105 51.8947 10.3105C51.7454 10.3105 51.6334 10.3319 51.5587 10.3745C51.4947 10.4065 51.4627 10.4705 51.4627 10.5665C51.4627 10.7479 51.6067 11.1372 51.8947 11.7345L52.5987 13.2225L52.9987 12.1505C53.2334 11.5425 53.3507 11.0839 53.3507 10.7745C53.3507 10.4652 53.2174 10.3105 52.9507 10.3105C52.9187 10.3105 52.9027 10.2785 52.9027 10.2145C52.9027 10.1505 52.9187 10.1185 52.9507 10.1185C53.036 10.1185 53.1267 10.1292 53.2227 10.1505C53.3294 10.1612 53.5854 10.1665 53.9907 10.1665C54.172 10.1665 54.3907 10.1559 54.6467 10.1345L55.2387 10.1185C55.26 10.1185 55.2707 10.1505 55.2707 10.2145C55.2707 10.2785 55.26 10.3105 55.2387 10.3105C54.524 10.3105 53.932 10.9399 53.4627 12.1985L52.8707 13.7825L54.7907 17.8305L56.8547 12.3105C56.9827 11.9692 57.0467 11.6599 57.0467 11.3825C57.0467 11.0519 56.9614 10.7905 56.7907 10.5985C56.6307 10.4065 56.412 10.3105 56.1347 10.3105C56.1027 10.3105 56.0867 10.2785 56.0867 10.2145C56.0867 10.1505 56.1027 10.1185 56.1347 10.1185L56.8707 10.1345C57.2547 10.1559 57.6067 10.1665 57.9267 10.1665C58.14 10.1665 58.3854 10.1559 58.6627 10.1345L59.3507 10.1185ZM69.2568 10.1185C69.2782 10.1185 69.2888 10.1505 69.2888 10.2145C69.2888 10.2785 69.2782 10.3105 69.2568 10.3105C68.9262 10.3105 68.5208 10.5185 68.0408 10.9345C67.5608 11.3399 67.1342 11.8519 66.7608 12.4705L65.0968 15.2545V18.8225C65.0968 19.1532 65.1235 19.3932 65.1768 19.5425C65.2302 19.6919 65.3315 19.7932 65.4808 19.8465C65.6408 19.8999 65.8915 19.9265 66.2328 19.9265C66.2648 19.9265 66.2808 19.9585 66.2808 20.0225C66.2808 20.0865 66.2648 20.1185 66.2328 20.1185C65.8808 20.1185 65.6035 20.1132 65.4008 20.1025L64.2008 20.0865L63.0168 20.1025C62.8035 20.1132 62.5155 20.1185 62.1528 20.1185C62.1315 20.1185 62.1208 20.0865 62.1208 20.0225C62.1208 19.9585 62.1315 19.9265 62.1528 19.9265C62.4942 19.9265 62.7448 19.8999 62.9048 19.8465C63.0648 19.7932 63.1715 19.6919 63.2248 19.5425C63.2888 19.3825 63.3208 19.1425 63.3208 18.8225V15.5905L60.9848 11.9585C60.5902 11.3399 60.2595 10.9132 59.9928 10.6785C59.7368 10.4332 59.5182 10.3105 59.3368 10.3105C59.3048 10.3105 59.2888 10.2785 59.2888 10.2145C59.2888 10.1505 59.3048 10.1185 59.3368 10.1185L59.8328 10.1345C60.0675 10.1559 60.2328 10.1665 60.3288 10.1665C60.7022 10.1665 61.2408 10.1559 61.9448 10.1345L63.0008 10.1185C63.0222 10.1185 63.0328 10.1505 63.0328 10.2145C63.0328 10.2785 63.0222 10.3105 63.0008 10.3105C62.8195 10.3105 62.6755 10.3532 62.5688 10.4385C62.4728 10.5239 62.4248 10.6359 62.4248 10.7745C62.4248 10.9452 62.4995 11.1479 62.6488 11.3825L64.8408 14.8385L66.3128 12.3265C66.6008 11.8465 66.7448 11.4359 66.7448 11.0945C66.7448 10.8385 66.6648 10.6465 66.5048 10.5185C66.3555 10.3799 66.1368 10.3105 65.8488 10.3105C65.8168 10.3105 65.8008 10.2785 65.8008 10.2145C65.8008 10.1505 65.8168 10.1185 65.8488 10.1185L66.6968 10.1345C67.1875 10.1559 67.6248 10.1665 68.0088 10.1665C68.1902 10.1665 68.4088 10.1559 68.6648 10.1345L69.2568 10.1185ZM79.7913 19.9265C79.8447 19.9265 79.8713 19.9585 79.8713 20.0225C79.8713 20.0865 79.8447 20.1185 79.7913 20.1185C79.578 20.1185 79.2473 20.1079 78.7993 20.0865C78.33 20.0652 77.994 20.0545 77.7913 20.0545C77.5247 20.0545 77.1993 20.0652 76.8153 20.0865C76.4527 20.1079 76.1647 20.1185 75.9513 20.1185C75.9087 20.1185 75.8873 20.0865 75.8873 20.0225C75.8873 19.9585 75.9087 19.9265 75.9513 19.9265C76.2287 19.9265 76.426 19.8999 76.5433 19.8465C76.6713 19.7825 76.7353 19.6759 76.7353 19.5265C76.7353 19.3452 76.6287 19.0412 76.4153 18.6145L74.7513 15.3345H71.9033L70.7673 17.8465C70.6287 18.1559 70.5593 18.4439 70.5593 18.7105C70.5593 19.0945 70.6927 19.3932 70.9593 19.6065C71.2367 19.8199 71.6047 19.9265 72.0633 19.9265C72.1167 19.9265 72.1433 19.9585 72.1433 20.0225C72.1433 20.0865 72.1167 20.1185 72.0633 20.1185C71.8713 20.1185 71.594 20.1079 71.2313 20.0865C70.826 20.0652 70.474 20.0545 70.1753 20.0545C69.8873 20.0545 69.5407 20.0652 69.1353 20.0865C68.7727 20.1079 68.4793 20.1185 68.2553 20.1185C68.2127 20.1185 68.1913 20.0865 68.1913 20.0225C68.1913 19.9585 68.2127 19.9265 68.2553 19.9265C68.554 19.9265 68.8047 19.8679 69.0073 19.7505C69.21 19.6225 69.4127 19.4039 69.6153 19.0945C69.818 18.7745 70.058 18.3052 70.3353 17.6865L73.8073 10.0545C73.8287 10.0225 73.8767 10.0065 73.9513 10.0065C74.0367 10.0065 74.0847 10.0225 74.0953 10.0545L78.0953 17.9265C78.4687 18.6839 78.778 19.2065 79.0233 19.4945C79.2687 19.7825 79.5247 19.9265 79.7913 19.9265ZM72.1113 14.8865H74.5273L73.2473 12.3585L72.1113 14.8865Z" fill="#151515"/>
</g>
<defs>
<clipPath id="clip0_716_1001">
<rect width="83" height="30" fill="white"/>
</clipPath>
</defs>
</svg>
