<svg width="83" height="30" viewBox="0 0 83 30" fill="none" xmlns="http://www.w3.org/2000/svg">
<circle cx="13.3705" cy="12.7687" r="11.6127" stroke="#28C0E9"/>
<circle cx="18.6298" cy="12.7687" r="11.6127" stroke="#F4C141"/>
<circle cx="16.1596" cy="17.2312" r="11.6127" stroke="#E837BC"/>
<path d="M41.6738 7.25598C42.1218 7.25598 42.4738 7.36798 42.7298 7.59198C42.9964 7.80532 43.1298 8.10398 43.1298 8.48798C43.1298 8.87198 42.9964 9.17598 42.7298 9.39998C42.4738 9.61331 42.1218 9.71998 41.6738 9.71998C41.2258 9.71998 40.8684 9.61331 40.6018 9.39998C40.3458 9.17598 40.2178 8.87198 40.2178 8.48798C40.2178 8.10398 40.3458 7.80532 40.6018 7.59198C40.8684 7.36798 41.2258 7.25598 41.6738 7.25598ZM42.9218 11.208V18.168C42.9218 18.616 42.9964 18.92 43.1458 19.08C43.3058 19.24 43.5724 19.32 43.9458 19.32V19.656C43.7538 19.6453 43.4551 19.6346 43.0498 19.624C42.6444 19.6026 42.2338 19.592 41.8177 19.592C41.4017 19.592 40.9804 19.6026 40.5538 19.624C40.1271 19.6346 39.8071 19.6453 39.5938 19.656V19.32C39.9671 19.32 40.2284 19.24 40.3778 19.08C40.5378 18.92 40.6178 18.616 40.6178 18.168V13.128C40.6178 12.648 40.5431 12.296 40.3938 12.072C40.2551 11.8373 39.9884 11.72 39.5938 11.72V11.384C39.9351 11.416 40.2658 11.432 40.5858 11.432C41.0338 11.432 41.4498 11.416 41.8338 11.384C42.2284 11.3413 42.5911 11.2826 42.9218 11.208Z" fill="#151515"/>
<path d="M48.4341 11.384V11.72C48.1995 11.72 47.9915 11.736 47.8101 11.768C47.6395 11.7893 47.5221 11.864 47.4581 11.992C47.4048 12.12 47.4261 12.328 47.5221 12.616L49.0421 17.368L48.8341 17.592L50.7061 11.368L51.0261 11.512L48.5781 19.688C48.4075 19.6773 48.2368 19.672 48.0661 19.672C47.8955 19.672 47.7195 19.6773 47.5381 19.688L45.0101 12.616C44.8608 12.1893 44.6955 11.9333 44.5141 11.848C44.3435 11.7626 44.1995 11.72 44.0821 11.72V11.384C44.4235 11.416 44.7755 11.4426 45.1381 11.464C45.5115 11.4746 45.9168 11.48 46.3541 11.48C46.6848 11.48 47.0315 11.4693 47.3941 11.448C47.7675 11.4266 48.1141 11.4053 48.4341 11.384ZM56.7861 11.384V11.704C56.5835 11.7573 56.3915 11.88 56.2101 12.072C56.0288 12.264 55.8581 12.6 55.6981 13.08L53.5701 19.688C53.3995 19.6773 53.2235 19.672 53.0421 19.672C52.8715 19.672 52.7008 19.6773 52.5301 19.688L50.2741 13.528L50.7061 11.368C50.8981 11.3786 51.0901 11.384 51.2821 11.384C51.4848 11.3733 51.6821 11.368 51.8741 11.368L54.0661 17.832L53.8901 17.656L54.9621 14.264C55.1435 13.6773 55.2128 13.2026 55.1701 12.84C55.1275 12.4773 54.9995 12.2053 54.7861 12.024C54.5728 11.8426 54.2848 11.736 53.9221 11.704V11.384C54.0928 11.3946 54.2741 11.4053 54.4661 11.416C54.6688 11.416 54.8661 11.4213 55.0581 11.432C55.2608 11.432 55.4315 11.432 55.5701 11.432C55.7835 11.432 56.0021 11.4266 56.2261 11.416C56.4608 11.4053 56.6475 11.3946 56.7861 11.384Z" fill="#151515"/>
<path d="M64.9959 11.384V11.704C64.7932 11.7573 64.6012 11.8853 64.4199 12.088C64.2385 12.28 64.0625 12.6106 63.8919 13.08L61.6359 19.416L61.0439 20.536L57.5559 12.616C57.3745 12.2 57.1932 11.9493 57.0119 11.864C56.8412 11.768 56.6919 11.72 56.5639 11.72V11.384C56.9159 11.416 57.2785 11.4426 57.6519 11.464C58.0359 11.4746 58.4039 11.48 58.7559 11.48C59.1932 11.48 59.5932 11.4693 59.9559 11.448C60.3185 11.4266 60.6599 11.4053 60.9799 11.384V11.72C60.7665 11.72 60.5639 11.736 60.3719 11.768C60.1905 11.7893 60.0625 11.864 59.9879 11.992C59.9239 12.1093 59.9559 12.3173 60.0839 12.616L62.0999 17.48L61.9559 17.576L63.1399 14.264C63.3425 13.688 63.4279 13.2186 63.3959 12.856C63.3639 12.4826 63.2465 12.2053 63.0439 12.024C62.8412 11.832 62.5639 11.7253 62.2119 11.704V11.384C62.3825 11.3946 62.5585 11.4053 62.7399 11.416C62.9212 11.416 63.1025 11.4213 63.2839 11.432C63.4652 11.432 63.6252 11.432 63.7639 11.432C63.9772 11.432 64.2012 11.4266 64.4359 11.416C64.6705 11.4053 64.8572 11.3946 64.9959 11.384ZM61.6359 19.416L61.0279 21.128C60.9212 21.3946 60.8092 21.6186 60.6919 21.8C60.5852 21.992 60.4625 22.1466 60.3239 22.264C60.1745 22.392 59.9825 22.488 59.7479 22.552C59.5132 22.6266 59.2412 22.664 58.9319 22.664C58.6759 22.664 58.4092 22.6213 58.1319 22.536C57.8652 22.4506 57.6412 22.312 57.4599 22.12C57.2785 21.928 57.1879 21.6826 57.1879 21.384C57.1879 21.0533 57.3052 20.7866 57.5399 20.584C57.7745 20.392 58.0839 20.296 58.4679 20.296C58.8199 20.296 59.1079 20.3813 59.3319 20.552C59.5559 20.7226 59.6679 20.9733 59.6679 21.304C59.6679 21.5173 59.5985 21.72 59.4599 21.912C59.3319 22.104 59.1345 22.248 58.8679 22.344C58.9212 22.3546 58.9852 22.36 59.0599 22.36C59.1345 22.36 59.1932 22.36 59.2359 22.36C59.5559 22.36 59.8385 22.2586 60.0839 22.056C60.3292 21.8533 60.5319 21.5333 60.6919 21.096L61.2519 19.448L61.6359 19.416Z" fill="#151515"/>
<path d="M67.4892 19.768C67.0092 19.768 66.6092 19.6773 66.2892 19.496C65.9692 19.3146 65.7346 19.0746 65.5852 18.776C65.4359 18.4666 65.3612 18.1306 65.3612 17.768C65.3612 17.3093 65.4626 16.936 65.6652 16.648C65.8786 16.36 66.1506 16.1253 66.4812 15.944C66.8119 15.7626 67.1586 15.6133 67.5212 15.496C67.8946 15.3786 68.2466 15.2666 68.5772 15.16C68.9186 15.0426 69.1906 14.9093 69.3932 14.76C69.6066 14.6 69.7132 14.3973 69.7132 14.152V12.904C69.7132 12.6266 69.6653 12.3813 69.5693 12.168C69.4839 11.944 69.3452 11.7733 69.1532 11.656C68.9719 11.5386 68.7319 11.48 68.4332 11.48C68.2199 11.48 68.0066 11.512 67.7932 11.576C67.5799 11.6293 67.4039 11.7253 67.2652 11.864C67.5639 11.9706 67.7932 12.136 67.9532 12.36C68.1239 12.5733 68.2092 12.8186 68.2092 13.096C68.2092 13.4586 68.0812 13.7466 67.8252 13.96C67.5799 14.1733 67.2866 14.28 66.9452 14.28C66.5612 14.28 66.2679 14.1626 66.0652 13.928C65.8732 13.6826 65.7772 13.3893 65.7772 13.048C65.7772 12.7386 65.8519 12.4826 66.0012 12.28C66.1612 12.0773 66.3799 11.8853 66.6572 11.704C66.9559 11.5333 67.3133 11.4 67.7292 11.304C68.1559 11.208 68.6146 11.16 69.1052 11.16C69.5959 11.16 70.0386 11.2133 70.4332 11.32C70.8279 11.416 71.1586 11.5973 71.4252 11.864C71.6706 12.1093 71.8306 12.4133 71.9053 12.776C71.9799 13.128 72.0173 13.576 72.0173 14.12V18.472C72.0173 18.7386 72.0439 18.9253 72.0973 19.032C72.1506 19.128 72.2413 19.176 72.3693 19.176C72.4653 19.176 72.5559 19.1493 72.6413 19.096C72.7373 19.0426 72.8386 18.9786 72.9453 18.904L73.1053 19.176C72.8813 19.368 72.6199 19.5173 72.3213 19.624C72.0333 19.72 71.7079 19.768 71.3453 19.768C70.9506 19.768 70.6359 19.7146 70.4012 19.608C70.1666 19.4906 69.9959 19.336 69.8892 19.144C69.7932 18.952 69.7452 18.728 69.7452 18.472C69.4892 18.8773 69.1799 19.1973 68.8172 19.432C68.4546 19.656 68.0119 19.768 67.4892 19.768ZM68.6252 18.744C68.8386 18.744 69.0306 18.696 69.2013 18.6C69.3826 18.4933 69.5532 18.3226 69.7132 18.088V14.808C69.6172 14.968 69.4839 15.112 69.3132 15.24C69.1426 15.368 68.9612 15.5013 68.7692 15.64C68.5772 15.768 68.3906 15.912 68.2092 16.072C68.0386 16.232 67.8999 16.4293 67.7932 16.664C67.6866 16.8986 67.6332 17.1813 67.6332 17.512C67.6332 17.928 67.7239 18.2373 67.9052 18.44C68.0866 18.6426 68.3266 18.744 68.6252 18.744Z" fill="#151515"/>
</svg>
