<svg width="90" height="30" viewBox="0 0 90 30" fill="none" xmlns="http://www.w3.org/2000/svg">
<circle cx="13.3705" cy="12.7687" r="11.6127" stroke="#28C0E9"/>
<circle cx="18.6303" cy="12.7687" r="11.6127" stroke="#F4C141"/>
<circle cx="16.1596" cy="17.2312" r="11.6127" stroke="#E837BC"/>
<path d="M43.1953 18.5156C43.1953 18.6927 43.2214 18.8411 43.2734 18.9609C43.3307 19.0807 43.4089 19.1771 43.5078 19.25C43.612 19.3229 43.737 19.375 43.8828 19.4062C44.0339 19.4375 44.2005 19.4531 44.3828 19.4531C44.4245 19.4531 44.4453 19.474 44.4453 19.5156V19.9375C44.4453 19.9531 44.4427 19.9688 44.4375 19.9844C44.4323 19.9948 44.4141 20 44.3828 20H39.7656C39.7396 20 39.7214 19.9922 39.7109 19.9766C39.7057 19.9609 39.7031 19.9479 39.7031 19.9375V19.5156C39.7031 19.5052 39.7057 19.4922 39.7109 19.4766C39.7214 19.4609 39.7396 19.4531 39.7656 19.4531C39.9479 19.4531 40.112 19.4427 40.2578 19.4219C40.4089 19.3958 40.5365 19.3438 40.6406 19.2656C40.7448 19.1875 40.8255 19.0755 40.8828 18.9297C40.9401 18.7839 40.9688 18.5859 40.9688 18.3359V10.4688C40.9688 10.2917 40.9401 10.1432 40.8828 10.0234C40.8307 9.90365 40.7526 9.80729 40.6484 9.73438C40.5495 9.66146 40.4245 9.60938 40.2734 9.57812C40.1276 9.54688 39.9635 9.53125 39.7812 9.53125C39.7396 9.53125 39.7188 9.51042 39.7188 9.46875V9.04688C39.7188 9.00521 39.7396 8.98438 39.7812 8.98438H44.3984C44.4245 8.98438 44.4401 8.99219 44.4453 9.00781C44.4557 9.02344 44.4609 9.03646 44.4609 9.04688V9.46875C44.4609 9.47917 44.4557 9.49219 44.4453 9.50781C44.4401 9.52344 44.4245 9.53125 44.3984 9.53125C44.2161 9.53125 44.0495 9.54427 43.8984 9.57031C43.7526 9.59115 43.6276 9.64062 43.5234 9.71875C43.4193 9.79688 43.3385 9.90885 43.2812 10.0547C43.224 10.2005 43.1953 10.3984 43.1953 10.6484V18.5156Z" fill="#151515"/>
<path d="M56.4844 20.2109C56.3594 20.2109 56.2786 20.1536 56.2422 20.0391L54.5078 15.8438L52.7578 19.9375C52.7005 20.0625 52.6406 20.138 52.5781 20.1641C52.5156 20.1953 52.4245 20.2109 52.3047 20.2109H51.1719C51.1094 20.2109 51.0599 20.1953 51.0234 20.1641C50.987 20.138 50.9557 20.0938 50.9297 20.0312L46.8828 10.2969C46.8255 10.1615 46.7422 10.0495 46.6328 9.96094C46.5234 9.86719 46.4062 9.79427 46.2812 9.74219C46.1615 9.6849 46.0443 9.64323 45.9297 9.61719C45.8203 9.58594 45.7344 9.5651 45.6719 9.55469C45.6354 9.54948 45.5911 9.54167 45.5391 9.53125C45.487 9.51562 45.4349 9.5026 45.3828 9.49219C45.3307 9.48177 45.2839 9.47396 45.2422 9.46875C45.2057 9.45833 45.1823 9.45312 45.1719 9.45312C45.1302 9.45312 45.1094 9.43229 45.1094 9.39062V9.04688C45.1094 9.00521 45.1302 8.98438 45.1719 8.98438H50.3281C50.3594 8.98438 50.3776 8.99219 50.3828 9.00781C50.388 9.01823 50.3906 9.03125 50.3906 9.04688V9.39062C50.3906 9.40104 50.3854 9.41406 50.375 9.42969C50.3698 9.44531 50.3542 9.45312 50.3281 9.45312H50.1875C49.9844 9.45312 49.8255 9.47656 49.7109 9.52344C49.5964 9.57031 49.5078 9.63021 49.4453 9.70312C49.388 9.77083 49.3516 9.84375 49.3359 9.92188C49.3255 10 49.3203 10.0703 49.3203 10.1328C49.3203 10.2474 49.3359 10.3542 49.3672 10.4531C49.4036 10.5521 49.4349 10.6562 49.4609 10.7656L52.2656 17.5234C52.2917 17.5755 52.3411 17.6016 52.4141 17.6016C52.4453 17.6016 52.4688 17.5938 52.4844 17.5781C52.5 17.5625 52.5156 17.5417 52.5312 17.5156L53.8828 14.3281L52.1719 10.2188C52.1042 10.0573 52 9.91406 51.8594 9.78906C51.7188 9.66406 51.5833 9.58594 51.4531 9.55469C51.3802 9.52865 51.2969 9.50521 51.2031 9.48438C51.1094 9.46354 51.0495 9.45312 51.0234 9.45312C50.9818 9.45312 50.9609 9.43229 50.9609 9.39062V9.04688C50.9609 9.00521 50.9818 8.98438 51.0234 8.98438H58.4453C58.4766 8.98438 58.4948 8.99219 58.5 9.00781C58.5052 9.02344 58.5078 9.03646 58.5078 9.04688V9.39062C58.5078 9.40625 58.5052 9.42188 58.5 9.4375C58.4948 9.44792 58.4766 9.45312 58.4453 9.45312H58.1562C57.9688 9.45312 57.8021 9.47917 57.6562 9.53125C57.5156 9.58333 57.388 9.66406 57.2734 9.77344C57.1589 9.88281 57.0521 10.0208 56.9531 10.1875C56.8594 10.3542 56.7656 10.5495 56.6719 10.7734L55.7109 13.0078L57.5781 17.5C57.6042 17.5521 57.6536 17.5781 57.7266 17.5781C57.7786 17.5781 57.8177 17.5495 57.8438 17.4922L60.9609 10.1875C61.0234 10.0417 61.0547 9.91927 61.0547 9.82031C61.0547 9.6849 60.9948 9.59115 60.875 9.53906C60.7604 9.48177 60.5443 9.45312 60.2266 9.45312H59.7422C59.7005 9.45312 59.6797 9.43229 59.6797 9.39062V9.04688C59.6797 9.03646 59.6823 9.02344 59.6875 9.00781C59.6927 8.99219 59.7109 8.98438 59.7422 8.98438H63.4531C63.4844 8.98438 63.5026 8.99219 63.5078 9.00781C63.513 9.02344 63.5156 9.03646 63.5156 9.04688V9.39062C63.5156 9.40625 63.513 9.42188 63.5078 9.4375C63.5026 9.44792 63.4844 9.45312 63.4531 9.45312H63.0859C62.9609 9.45312 62.8516 9.47917 62.7578 9.53125C62.6641 9.57812 62.5755 9.65365 62.4922 9.75781C62.4141 9.85677 62.3359 9.98177 62.2578 10.1328C62.1849 10.2839 62.1068 10.4609 62.0234 10.6641L58.0625 19.9375C58.0052 20.0625 57.9453 20.138 57.8828 20.1641C57.8203 20.1953 57.7292 20.2109 57.6094 20.2109H56.4844ZM55.7109 10.0312C55.7474 9.94792 55.7682 9.88542 55.7734 9.84375C55.7839 9.80208 55.7891 9.75521 55.7891 9.70312C55.7891 9.53646 55.612 9.45312 55.2578 9.45312C55.112 9.45312 54.9922 9.47135 54.8984 9.50781C54.8047 9.53906 54.7292 9.58073 54.6719 9.63281C54.6198 9.67969 54.5833 9.73438 54.5625 9.79688C54.5417 9.85938 54.5312 9.91927 54.5312 9.97656C54.5312 10.0339 54.5391 10.0938 54.5547 10.1562C54.5703 10.2188 54.5964 10.3047 54.6328 10.4141C54.6745 10.5182 54.7292 10.6562 54.7969 10.8281C54.8698 11 54.9635 11.224 55.0781 11.5L55.7109 10.0312Z" fill="#151515"/>
<path d="M69.1094 16.1406C69.1094 16.1094 69.1016 16.0833 69.0859 16.0625L65.8906 10.9531C65.8021 10.8125 65.7057 10.6719 65.6016 10.5312C65.5026 10.3854 65.3906 10.25 65.2656 10.125C65.1458 9.99479 65.013 9.88281 64.8672 9.78906C64.7266 9.6901 64.5729 9.61979 64.4062 9.57812C64.3802 9.57292 64.3385 9.5651 64.2812 9.55469C64.224 9.53906 64.1641 9.52604 64.1016 9.51562C64.0391 9.50521 63.9792 9.49479 63.9219 9.48438C63.8646 9.47396 63.8229 9.46615 63.7969 9.46094C63.7448 9.45573 63.6953 9.42448 63.6484 9.36719C63.6016 9.30469 63.5781 9.25 63.5781 9.20312C63.5781 9.19271 63.5781 9.17448 63.5781 9.14844C63.5833 9.1224 63.5885 9.09896 63.5938 9.07812C63.6042 9.05208 63.6172 9.03125 63.6328 9.01562C63.6484 8.99479 63.6693 8.98438 63.6953 8.98438H69C69.0573 8.98438 69.0938 9.01042 69.1094 9.0625C69.125 9.11458 69.1328 9.16146 69.1328 9.20312C69.1328 9.25521 69.1276 9.3099 69.1172 9.36719C69.112 9.42448 69.0833 9.45312 69.0312 9.45312C68.8906 9.46354 68.7578 9.47396 68.6328 9.48438C68.5078 9.49479 68.401 9.52083 68.3125 9.5625C68.224 9.59896 68.1536 9.65625 68.1016 9.73438C68.0495 9.8125 68.0234 9.92188 68.0234 10.0625C68.0234 10.1875 68.0547 10.2995 68.1172 10.3984L70.5 14.2266C70.5573 14.3151 70.5938 14.3698 70.6094 14.3906C70.6302 14.4115 70.6615 14.4219 70.7031 14.4219C70.7396 14.4219 70.7708 14.401 70.7969 14.3594C70.8281 14.3177 70.8646 14.263 70.9062 14.1953L72.7891 11C72.862 10.8802 72.9349 10.7474 73.0078 10.6016C73.0859 10.4557 73.125 10.3073 73.125 10.1562C73.125 10.0104 73.1042 9.89583 73.0625 9.8125C73.026 9.72396 72.9688 9.65625 72.8906 9.60938C72.8125 9.5625 72.7161 9.52865 72.6016 9.50781C72.4922 9.48698 72.3646 9.46875 72.2188 9.45312C72.1615 9.44792 72.1276 9.41667 72.1172 9.35938C72.1068 9.30208 72.1016 9.25 72.1016 9.20312C72.1016 9.16667 72.1068 9.1224 72.1172 9.07031C72.1328 9.01302 72.1719 8.98438 72.2344 8.98438H76.1641C76.2057 8.98438 76.2344 9.01562 76.25 9.07812C76.2656 9.13542 76.2734 9.17708 76.2734 9.20312C76.2734 9.25521 76.2552 9.29948 76.2188 9.33594C76.1875 9.3724 76.1458 9.40365 76.0938 9.42969C76.0469 9.45052 75.9948 9.46875 75.9375 9.48438C75.8854 9.49479 75.8359 9.50521 75.7891 9.51562C75.5286 9.57292 75.3021 9.66927 75.1094 9.80469C74.9219 9.9349 74.737 10.099 74.5547 10.2969C74.5286 10.3229 74.4896 10.3646 74.4375 10.4219C74.3906 10.4792 74.3646 10.513 74.3594 10.5234L71.3359 15.7188V18.4766C71.3359 18.7891 71.4167 19.0312 71.5781 19.2031C71.7396 19.375 72.026 19.4818 72.4375 19.5234C72.4948 19.5286 72.5677 19.5312 72.6562 19.5312C72.7448 19.5312 72.8203 19.5312 72.8828 19.5312C72.9089 19.5312 72.9245 19.5391 72.9297 19.5547C72.9401 19.5703 72.9453 19.5833 72.9453 19.5938V19.9375C72.9453 19.9479 72.9401 19.9609 72.9297 19.9766C72.9245 19.9922 72.9089 20 72.8828 20H67.5625C67.5365 20 67.5182 19.9922 67.5078 19.9766C67.5026 19.9609 67.5 19.9479 67.5 19.9375V19.5938C67.5 19.5833 67.5026 19.5703 67.5078 19.5547C67.5182 19.5391 67.5365 19.5312 67.5625 19.5312C67.6198 19.5312 67.6927 19.5312 67.7812 19.5312C67.875 19.5312 67.9505 19.5286 68.0078 19.5234C68.4193 19.4818 68.7057 19.375 68.8672 19.2031C69.0286 19.0312 69.1094 18.7891 69.1094 18.4766V16.1406Z" fill="#151515"/>
<path d="M74.7891 19.6328C74.7891 19.5911 74.8099 19.5703 74.8516 19.5703C74.9505 19.5651 75.0651 19.5521 75.1953 19.5312C75.3307 19.5052 75.4661 19.4557 75.6016 19.3828C75.7422 19.3047 75.8776 19.1927 76.0078 19.0469C76.138 18.8958 76.2474 18.6901 76.3359 18.4297L79.4766 9.32031C79.4766 9.32552 79.4766 9.32292 79.4766 9.3125C79.4818 9.30208 79.4844 9.29167 79.4844 9.28125C79.4844 9.24479 79.4688 9.20052 79.4375 9.14844C79.4115 9.09115 79.3984 9.04948 79.3984 9.02344C79.3984 8.9974 79.4089 8.98438 79.4297 8.98438H81.6953C81.7057 8.98958 81.7188 8.99479 81.7344 9C81.7552 9.00521 81.7708 9.02083 81.7812 9.04688L85.0859 18.3203C85.138 18.4661 85.1875 18.5911 85.2344 18.6953C85.2812 18.7995 85.3359 18.8932 85.3984 18.9766C85.4661 19.0547 85.5495 19.1276 85.6484 19.1953C85.7474 19.2578 85.875 19.3229 86.0312 19.3906C86.1042 19.4271 86.2031 19.4661 86.3281 19.5078C86.4531 19.5495 86.5729 19.5703 86.6875 19.5703C86.7135 19.5703 86.7292 19.5781 86.7344 19.5938C86.7448 19.6094 86.75 19.625 86.75 19.6406V19.9375C86.75 19.9479 86.7448 19.9609 86.7344 19.9766C86.7292 19.9922 86.7135 20 86.6875 20H81.2031C81.1771 20 81.1589 19.9922 81.1484 19.9766C81.1432 19.9609 81.1406 19.9479 81.1406 19.9375V19.6328C81.1406 19.6224 81.1432 19.6094 81.1484 19.5938C81.1589 19.5781 81.1771 19.5703 81.2031 19.5703C81.224 19.5703 81.2448 19.5703 81.2656 19.5703C81.2865 19.5651 81.3021 19.5625 81.3125 19.5625C81.3698 19.5573 81.4505 19.5521 81.5547 19.5469C81.6641 19.5417 81.7812 19.5339 81.9062 19.5234C82.0312 19.5078 82.1562 19.487 82.2812 19.4609C82.4115 19.4297 82.5286 19.388 82.6328 19.3359C82.737 19.2786 82.8229 19.2057 82.8906 19.1172C82.9583 19.0286 82.9922 18.9193 82.9922 18.7891C82.9922 18.7578 82.987 18.7214 82.9766 18.6797L81.9531 15.8594C81.9479 15.849 81.9375 15.8255 81.9219 15.7891C81.9115 15.7526 81.8906 15.7161 81.8594 15.6797C81.8333 15.638 81.7969 15.6016 81.75 15.5703C81.7083 15.5391 81.6562 15.5234 81.5938 15.5234H78.7734C78.7057 15.5234 78.6484 15.5391 78.6016 15.5703C78.5547 15.6016 78.5156 15.6354 78.4844 15.6719C78.4531 15.7083 78.4271 15.7448 78.4062 15.7812C78.3906 15.8177 78.3828 15.8385 78.3828 15.8438C78.2161 16.3333 78.0755 16.7474 77.9609 17.0859C77.8464 17.4193 77.75 17.6953 77.6719 17.9141C77.599 18.1328 77.5417 18.3021 77.5 18.4219C77.4583 18.5417 77.4271 18.6302 77.4062 18.6875C77.3906 18.7396 77.3802 18.7734 77.375 18.7891C77.375 18.7995 77.375 18.8047 77.375 18.8047C77.375 18.8203 77.3776 18.8385 77.3828 18.8594C77.388 18.875 77.3932 18.8906 77.3984 18.9062C77.4401 19.0365 77.5156 19.1458 77.625 19.2344C77.7396 19.3177 77.8698 19.3854 78.0156 19.4375C78.1615 19.4844 78.3099 19.5182 78.4609 19.5391C78.6172 19.5599 78.7552 19.5703 78.875 19.5703H79.0781C79.1042 19.5703 79.1198 19.5781 79.125 19.5938C79.1354 19.6094 79.1406 19.6224 79.1406 19.6328V19.9375C79.1406 19.9479 79.1354 19.9609 79.125 19.9766C79.1198 19.9922 79.1042 20 79.0781 20H74.8516C74.8099 20 74.7891 19.9792 74.7891 19.9375V19.6328ZM78.8828 14.3984C78.8724 14.4245 78.8646 14.4505 78.8594 14.4766C78.8542 14.5026 78.8516 14.5286 78.8516 14.5547C78.8516 14.5859 78.8594 14.612 78.875 14.6328C78.8906 14.6484 78.9219 14.6562 78.9688 14.6562H81.3125C81.3698 14.6562 81.4062 14.6458 81.4219 14.625C81.4427 14.599 81.4531 14.5703 81.4531 14.5391C81.4531 14.513 81.4505 14.4896 81.4453 14.4688C81.4401 14.4479 81.4323 14.4245 81.4219 14.3984L80.3828 11.5469C80.3568 11.474 80.3177 11.4219 80.2656 11.3906C80.2135 11.3542 80.1667 11.3359 80.125 11.3359C80.0833 11.3359 80.0365 11.3568 79.9844 11.3984C79.9323 11.4349 79.8932 11.487 79.8672 11.5547L78.8828 14.3984Z" fill="#151515"/>
</svg>
